<?xml version="1.0" encoding="utf-8"?>
<svg viewBox="0 0 100 100" xmlns="http://www.w3.org/2000/svg">
  <rect width="100" height="100" fill="none" fill-rule="evenodd"/>
  <path fill="#000000" fill-rule="nonzero" d="M 87.452 29.887 C 87.452 31.419 88.694 32.661 90.226 32.661 C 91.758 32.661 93 31.419 93 29.887 L 93 9.774 C 93 8.242 91.758 7 90.226 7 L 70.113 7 C 68.581 7 67.339 8.242 67.339 9.774 C 67.339 11.306 68.581 12.548 70.113 12.548 L 87.452 12.548 L 87.452 29.887 Z M 70.113 87.452 C 68.581 87.452 67.339 88.694 67.339 90.226 C 67.339 91.758 68.581 93 70.113 93 L 90.226 93 C 91.758 93 93 91.758 93 90.226 L 93 70.113 C 93 68.581 91.758 67.339 90.226 67.339 C 88.694 67.339 87.452 68.581 87.452 70.113 L 87.452 87.452 L 70.113 87.452 Z M 12.548 70.113 C 12.548 68.581 11.306 67.339 9.774 67.339 C 8.242 67.339 7 68.581 7 70.113 L 7 90.226 C 7 91.758 8.242 93 9.774 93 L 29.887 93 C 31.419 93 32.661 91.758 32.661 90.226 C 32.661 88.694 31.419 87.452 29.887 87.452 L 12.548 87.452 L 12.548 70.113 Z M 29.887 12.548 C 31.419 12.548 32.661 11.306 32.661 9.774 C 32.661 8.242 31.419 7 29.887 7 L 9.774 7 C 8.242 7 7 8.242 7 9.774 L 7 29.887 C 7 31.419 8.242 32.661 9.774 32.661 C 11.306 32.661 12.548 31.419 12.548 29.887 L 12.548 12.548 L 29.887 12.548 Z"/>
</svg>